<?xml version="1.0" encoding="us-ascii" standalone="no"?><svg xmlns="http://www.w3.org/2000/svg" xmlns:xlink="http://www.w3.org/1999/xlink" contentStyleType="text/css" height="202px" preserveAspectRatio="none" style="width:480px;height:202px;background:#FFFFFF;" version="1.1" viewBox="0 0 480 202" width="480px" zoomAndPan="magnify"><defs/><g><!--class Card--><g id="elem_Card"><rect codeLine="6" fill="#FEECCD" height="179.418" id="Card" rx="5" ry="5" style="stroke:#7A003C;stroke-width:1.0;" width="175" x="152.5" y="11.48"/><ellipse cx="219.25" cy="27.48" fill="#ADD1B2" rx="11" ry="11" style="stroke:#181818;stroke-width:1.0;"/><path d="M221.7231,33.6231 Q221.1421,33.9219 220.5029,34.0713 Q219.8638,34.2207 219.1582,34.2207 Q216.6514,34.2207 215.3315,32.5689 Q214.0117,30.917 214.0117,27.7959 Q214.0117,24.6665 215.3315,23.0147 Q216.6514,21.3628 219.1582,21.3628 Q219.8638,21.3628 220.5112,21.5122 Q221.1587,21.6616 221.7231,21.9605 L221.7231,24.6831 Q221.0923,24.1021 220.4988,23.8323 Q219.9053,23.5625 219.2744,23.5625 Q217.9297,23.5625 217.2449,24.6292 Q216.5601,25.6958 216.5601,27.7959 Q216.5601,29.8877 217.2449,30.9544 Q217.9297,32.021 219.2744,32.021 Q219.9053,32.021 220.4988,31.7512 Q221.0923,31.4815 221.7231,30.9004 Z " fill="#000000"/><text fill="#000000" font-family="sans-serif" font-size="14" lengthAdjust="spacing" textLength="33" x="239.75" y="32.771">Card</text><line style="stroke:#7A003C;stroke-width:1.0;" x1="153.5" x2="326.5" y1="43.48" y2="43.48"/><ellipse cx="163.5" cy="57.2241" fill="#84BE84" rx="3" ry="3" style="stroke:#038048;stroke-width:1.0;"/><text fill="#000000" font-family="sans-serif" font-size="14" lengthAdjust="spacing" textLength="149" x="172.5" y="61.0152">this(c: Color, v: Value)</text><ellipse cx="163.5" cy="73.7124" fill="#84BE84" rx="3" ry="3" style="stroke:#038048;stroke-width:1.0;"/><text fill="#000000" font-family="sans-serif" font-size="14" lengthAdjust="spacing" textLength="35" x="172.5" y="77.5034">this()</text><line style="stroke:#7A003C;stroke-width:1.0;" x1="153.5" x2="326.5" y1="84.4566" y2="84.4566"/><ellipse cx="163.5" cy="98.2007" fill="#84BE84" rx="3" ry="3" style="stroke:#038048;stroke-width:1.0;"/><text fill="#000000" font-family="sans-serif" font-size="14" lengthAdjust="spacing" textLength="116" x="172.5" y="101.9917">getColor(): Color</text><ellipse cx="163.5" cy="114.689" fill="#84BE84" rx="3" ry="3" style="stroke:#038048;stroke-width:1.0;"/><text fill="#000000" font-family="sans-serif" font-size="14" lengthAdjust="spacing" textLength="121" x="172.5" y="118.48">setColor(c: Color)</text><line style="stroke:#7A003C;stroke-width:1.0;" x1="153.5" x2="326.5" y1="125.4331" y2="125.4331"/><ellipse cx="163.5" cy="139.1773" fill="#84BE84" rx="3" ry="3" style="stroke:#038048;stroke-width:1.0;"/><text fill="#000000" font-family="sans-serif" font-size="14" lengthAdjust="spacing" textLength="116" x="172.5" y="142.9683">getValue(): Value</text><ellipse cx="163.5" cy="155.6655" fill="#84BE84" rx="3" ry="3" style="stroke:#038048;stroke-width:1.0;"/><text fill="#000000" font-family="sans-serif" font-size="14" lengthAdjust="spacing" textLength="121" x="172.5" y="159.4566">setValue(v: Value)</text><line style="stroke:#7A003C;stroke-width:1.0;" x1="153.5" x2="326.5" y1="166.4097" y2="166.4097"/><ellipse cx="163.5" cy="180.1538" fill="#84BE84" rx="3" ry="3" style="stroke:#038048;stroke-width:1.0;"/><text fill="#000000" font-family="sans-serif" font-size="14" lengthAdjust="spacing" textLength="125" x="172.5" y="183.9448">isJoker?(): Boolean</text></g><!--class Color--><g id="elem_Color"><rect codeLine="22" fill="#FEECCD" height="138.9297" id="Color" rx="5" ry="5" style="stroke:#7A003C;stroke-width:1.0;" width="70" x="7" y="31.73"/><ellipse cx="22" cy="47.73" fill="#EB937F" rx="11" ry="11" style="stroke:#181818;stroke-width:1.0;"/><path d="M25.6143,54.23 L17.8945,54.23 L17.8945,41.8369 L25.6143,41.8369 L25.6143,43.9951 L20.3433,43.9951 L20.3433,46.668 L25.1162,46.668 L25.1162,48.8262 L20.3433,48.8262 L20.3433,52.0718 L25.6143,52.0718 Z " fill="#000000"/><text fill="#000000" font-family="sans-serif" font-size="14" lengthAdjust="spacing" textLength="38" x="36" y="53.021">Color</text><line style="stroke:#7A003C;stroke-width:1.0;" x1="8" x2="76" y1="63.73" y2="63.73"/><text fill="#000000" font-family="sans-serif" font-size="14" lengthAdjust="spacing" textLength="45" x="13" y="81.2652">GREEN</text><text fill="#000000" font-family="sans-serif" font-size="14" lengthAdjust="spacing" textLength="33" x="13" y="97.7534">BLUE</text><text fill="#000000" font-family="sans-serif" font-size="14" lengthAdjust="spacing" textLength="27" x="13" y="114.2417">RED</text><text fill="#000000" font-family="sans-serif" font-size="14" lengthAdjust="spacing" textLength="54" x="13" y="130.73">YELLOW</text><text fill="#000000" font-family="sans-serif" font-size="14" lengthAdjust="spacing" textLength="50" x="13" y="147.2183">PURPLE</text><text fill="#000000" font-family="sans-serif" font-size="14" lengthAdjust="spacing" textLength="50" x="13" y="163.7066">BROWN</text></g><!--class Value--><g id="elem_Value"><rect codeLine="31" fill="#FEECCD" height="188.3945" id="Value" rx="5" ry="5" style="stroke:#7A003C;stroke-width:1.0;" width="70" x="403" y="7"/><ellipse cx="418" cy="23" fill="#EB937F" rx="11" ry="11" style="stroke:#181818;stroke-width:1.0;"/><path d="M421.6143,29.5 L413.8945,29.5 L413.8945,17.1069 L421.6143,17.1069 L421.6143,19.2651 L416.3433,19.2651 L416.3433,21.938 L421.1162,21.938 L421.1162,24.0962 L416.3433,24.0962 L416.3433,27.3418 L421.6143,27.3418 Z " fill="#000000"/><text fill="#000000" font-family="sans-serif" font-size="14" lengthAdjust="spacing" textLength="38" x="432" y="28.291">Value</text><line style="stroke:#7A003C;stroke-width:1.0;" x1="404" x2="472" y1="39" y2="39"/><text fill="#000000" font-family="sans-serif" font-size="14" lengthAdjust="spacing" textLength="32" x="409" y="56.5352">NINE</text><text fill="#000000" font-family="sans-serif" font-size="14" lengthAdjust="spacing" textLength="41" x="409" y="73.0234">EIGHT</text><text fill="#000000" font-family="sans-serif" font-size="14" lengthAdjust="spacing" textLength="43" x="409" y="89.5117">SEVEN</text><text fill="#000000" font-family="sans-serif" font-size="14" lengthAdjust="spacing" textLength="21" x="409" y="106">SIX</text><text fill="#000000" font-family="sans-serif" font-size="14" lengthAdjust="spacing" textLength="29" x="409" y="122.4883">FIVE</text><text fill="#000000" font-family="sans-serif" font-size="14" lengthAdjust="spacing" textLength="38" x="409" y="138.9766">FOUR</text><text fill="#000000" font-family="sans-serif" font-size="14" lengthAdjust="spacing" textLength="44" x="409" y="155.4648">THREE</text><text fill="#000000" font-family="sans-serif" font-size="14" lengthAdjust="spacing" textLength="32" x="409" y="171.9531">TWO</text><text fill="#000000" font-family="sans-serif" font-size="14" lengthAdjust="spacing" textLength="29" x="409" y="188.4414">ONE</text></g><!--link Color to Card--><g id="link_Color_Card"><path codeLine="19" d="M83.32,101.19 C99.01,101.19 108,101.19 108,101.19 C108,101.19 120.82,101.19 140.02,101.19 " fill="none" id="Color-Card" style="stroke:#7A003C;stroke-width:1.0;"/><polygon fill="#7A003C" points="77.32,101.19,86.32,105.19,82.32,101.19,86.32,97.19,77.32,101.19" style="stroke:#7A003C;stroke-width:1.0;"/><polygon fill="#7A003C" points="152.02,101.19,146.02,97.19,140.02,101.19,146.02,105.19,152.02,101.19" style="stroke:#7A003C;stroke-width:1.0;"/><text fill="#000000" font-family="sans-serif" font-size="13" lengthAdjust="spacing" textLength="44" x="85.0224" y="97.7708">- color</text></g><!--link Card to Value--><g id="link_Card_Value"><path codeLine="20" d="M339.98,101.19 C359.18,101.19 372,101.19 372,101.19 C372,101.19 380.99,101.19 396.68,101.19 " fill="none" id="Card-Value" style="stroke:#7A003C;stroke-width:1.0;"/><polygon fill="#7A003C" points="327.98,101.19,333.98,105.19,339.98,101.19,333.98,97.19,327.98,101.19" style="stroke:#7A003C;stroke-width:1.0;"/><polygon fill="#7A003C" points="402.68,101.19,393.68,97.19,397.68,101.19,393.68,105.19,402.68,101.19" style="stroke:#7A003C;stroke-width:1.0;"/><text fill="#000000" font-family="sans-serif" font-size="13" lengthAdjust="spacing" textLength="45" x="349.9104" y="97.7704">- value</text></g><!--SRC=[RP1HJuCm4CVVxrESF6rJvfCnMHPDcDs68R2m3VInWKR92YKKbXYpx-vwXMKQ-tA_zkx_lxlU55KckrpWzBxkIZdLxPSK0FfGL3LlU8cLoeKMDJu-06IIQuqBtkJu3KZd5jlFGe-o6IwKLCqT7cUOSDc9yU-2uUgwb_SFqP9cDEx5bumUCeFj_shgOzG4rsgR-JlAbRhGh-eWccUZzfIIWbTm0g1cwBYO6N1mxaveNQ2T9-wJoHsDfsDxWgYwqiuuVCagPYoqw0LxPYbcBnRUMH14gUNDFju4VO4NHsbeHY13CkyDGp-qDSnVhNT4MvRqBRR-6yMbdzYYPRIF2NRhynoMqeXYTFOvmGy0]--></g></svg>