<?xml version="1.0" encoding="us-ascii" standalone="no"?><svg xmlns="http://www.w3.org/2000/svg" xmlns:xlink="http://www.w3.org/1999/xlink" contentStyleType="text/css" height="385px" preserveAspectRatio="none" style="width:592px;height:385px;background:#FFFFFF;" version="1.1" viewBox="0 0 592 385" width="592px" zoomAndPan="magnify"><defs/><g><!--class Card--><g id="elem_Card"><rect codeLine="7" fill="#FEECCD" height="113.9531" id="Card" rx="5" ry="5" style="stroke:#7A003C;stroke-width:1.0;" width="175" x="152.5" y="44.22"/><ellipse cx="219.25" cy="60.22" fill="#ADD1B2" rx="11" ry="11" style="stroke:#181818;stroke-width:1.0;"/><path d="M221.7231,66.3631 Q221.1421,66.6619 220.5029,66.8113 Q219.8638,66.9607 219.1582,66.9607 Q216.6514,66.9607 215.3315,65.3089 Q214.0117,63.657 214.0117,60.5359 Q214.0117,57.4065 215.3315,55.7547 Q216.6514,54.1028 219.1582,54.1028 Q219.8638,54.1028 220.5112,54.2522 Q221.1587,54.4016 221.7231,54.7005 L221.7231,57.4231 Q221.0923,56.8421 220.4988,56.5723 Q219.9053,56.3025 219.2744,56.3025 Q217.9297,56.3025 217.2449,57.3692 Q216.5601,58.4358 216.5601,60.5359 Q216.5601,62.6277 217.2449,63.6944 Q217.9297,64.761 219.2744,64.761 Q219.9053,64.761 220.4988,64.4912 Q221.0923,64.2215 221.7231,63.6404 Z " fill="#000000"/><text fill="#000000" font-family="sans-serif" font-size="14" lengthAdjust="spacing" textLength="33" x="239.75" y="65.511">Card</text><line style="stroke:#7A003C;stroke-width:1.0;" x1="153.5" x2="326.5" y1="76.22" y2="76.22"/><ellipse cx="163.5" cy="89.9641" fill="#84BE84" rx="3" ry="3" style="stroke:#038048;stroke-width:1.0;"/><text fill="#000000" font-family="sans-serif" font-size="14" lengthAdjust="spacing" textLength="149" x="172.5" y="93.7552">this(c: Color, v: Value)</text><polygon fill="#FFFF44" points="163.5,101.4524,167.5,105.4524,163.5,109.4524,159.5,105.4524" style="stroke:#B38D22;stroke-width:1.0;"/><text fill="#000000" font-family="sans-serif" font-size="14" lengthAdjust="spacing" textLength="35" x="172.5" y="110.2434">this()</text><line style="stroke:#7A003C;stroke-width:1.0;" x1="153.5" x2="326.5" y1="117.1966" y2="117.1966"/><ellipse cx="163.5" cy="130.9407" fill="#84BE84" rx="3" ry="3" style="stroke:#038048;stroke-width:1.0;"/><text fill="#000000" font-family="sans-serif" font-size="14" lengthAdjust="spacing" textLength="116" x="172.5" y="134.7317">getColor(): Color</text><ellipse cx="163.5" cy="147.429" fill="#84BE84" rx="3" ry="3" style="stroke:#038048;stroke-width:1.0;"/><text fill="#000000" font-family="sans-serif" font-size="14" lengthAdjust="spacing" textLength="116" x="172.5" y="151.22">getValue(): Value</text></g><!--class Joker--><g id="elem_Joker"><rect codeLine="15" fill="#FEECCD" height="138.4414" id="Joker" rx="5" ry="5" style="stroke:#7A003C;stroke-width:1.0;" width="151" x="164.5" y="240.4"/><ellipse cx="218.25" cy="256.4" fill="#ADD1B2" rx="11" ry="11" style="stroke:#181818;stroke-width:1.0;"/><path d="M220.7231,262.5431 Q220.1421,262.8419 219.5029,262.9913 Q218.8638,263.1407 218.1582,263.1407 Q215.6514,263.1407 214.3315,261.4889 Q213.0117,259.837 213.0117,256.7159 Q213.0117,253.5865 214.3315,251.9347 Q215.6514,250.2828 218.1582,250.2828 Q218.8638,250.2828 219.5112,250.4322 Q220.1587,250.5816 220.7231,250.8805 L220.7231,253.6031 Q220.0923,253.0221 219.4988,252.7523 Q218.9053,252.4825 218.2744,252.4825 Q216.9297,252.4825 216.2449,253.5492 Q215.5601,254.6158 215.5601,256.7159 Q215.5601,258.8077 216.2449,259.8744 Q216.9297,260.941 218.2744,260.941 Q218.9053,260.941 219.4988,260.6712 Q220.0923,260.4015 220.7231,259.8204 Z " fill="#000000"/><text fill="#000000" font-family="sans-serif" font-size="14" lengthAdjust="spacing" textLength="35" x="238.75" y="261.691">Joker</text><line style="stroke:#7A003C;stroke-width:1.0;" x1="165.5" x2="314.5" y1="272.4" y2="272.4"/><ellipse cx="175.5" cy="286.1441" fill="#84BE84" rx="3" ry="3" style="stroke:#038048;stroke-width:1.0;"/><text fill="#000000" font-family="sans-serif" font-size="14" lengthAdjust="spacing" textLength="35" x="184.5" y="289.9352">this()</text><line style="stroke:#7A003C;stroke-width:1.0;" x1="165.5" x2="314.5" y1="296.8883" y2="296.8883"/><ellipse cx="175.5" cy="310.6324" fill="#84BE84" rx="3" ry="3" style="stroke:#038048;stroke-width:1.0;"/><text fill="#000000" font-family="sans-serif" font-size="14" lengthAdjust="spacing" textLength="125" x="184.5" y="314.4234">^getColor(): Color</text><ellipse cx="175.5" cy="327.1207" fill="#84BE84" rx="3" ry="3" style="stroke:#038048;stroke-width:1.0;"/><text fill="#000000" font-family="sans-serif" font-size="14" lengthAdjust="spacing" textLength="125" x="184.5" y="330.9117">^getValue(): Value</text><line style="stroke:#7A003C;stroke-width:1.0;" x1="165.5" x2="314.5" y1="337.8648" y2="337.8648"/><ellipse cx="175.5" cy="351.609" fill="#84BE84" rx="3" ry="3" style="stroke:#038048;stroke-width:1.0;"/><text fill="#000000" font-family="sans-serif" font-size="14" lengthAdjust="spacing" textLength="121" x="184.5" y="355.4">setColor(c: Color)</text><ellipse cx="175.5" cy="368.0973" fill="#84BE84" rx="3" ry="3" style="stroke:#038048;stroke-width:1.0;"/><text fill="#000000" font-family="sans-serif" font-size="14" lengthAdjust="spacing" textLength="121" x="184.5" y="371.8883">setValue(v: Value)</text></g><g id="elem_GMN5"><path d="M390.5,297.98 L390.5,321.2612 A5,5 0 0 0 395.5,326.2612 L580.5,326.2612 A5,5 0 0 0 585.5,321.2612 L585.5,302.98 L575.5,292.98 L395.5,292.98 A5,5 0 0 0 390.5,297.98 " fill="#FEFFDD" style="stroke:#181818;stroke-width:0.5;"/><path d="M575.5,292.98 L575.5,300.48 A2.5,2.5 0 0 0 578,302.98 L585.5,302.98 L575.5,292.98 " fill="#FEFFDD" style="stroke:#181818;stroke-width:1.0;"/><text fill="#000000" font-family="Courier" font-size="10" lengthAdjust="spacing" textLength="174" x="396.5" y="307.2622">UnsupportedOperationException</text><text fill="#000000" font-family="Courier" font-size="10" lengthAdjust="spacing" textLength="138" x="396.5" y="318.9029">thrown&#160;when&#160;get*&#160;called</text></g><!--class Color--><g id="elem_Color"><rect codeLine="29" fill="#FEECCD" height="138.9297" id="Color" rx="5" ry="5" style="stroke:#7A003C;stroke-width:1.0;" width="70" x="7" y="31.74"/><ellipse cx="22" cy="47.74" fill="#EB937F" rx="11" ry="11" style="stroke:#181818;stroke-width:1.0;"/><path d="M25.6143,54.24 L17.8945,54.24 L17.8945,41.8469 L25.6143,41.8469 L25.6143,44.0051 L20.3433,44.0051 L20.3433,46.678 L25.1162,46.678 L25.1162,48.8362 L20.3433,48.8362 L20.3433,52.0818 L25.6143,52.0818 Z " fill="#000000"/><text fill="#000000" font-family="sans-serif" font-size="14" lengthAdjust="spacing" textLength="38" x="36" y="53.031">Color</text><line style="stroke:#7A003C;stroke-width:1.0;" x1="8" x2="76" y1="63.74" y2="63.74"/><text fill="#000000" font-family="sans-serif" font-size="14" lengthAdjust="spacing" textLength="45" x="13" y="81.2752">GREEN</text><text fill="#000000" font-family="sans-serif" font-size="14" lengthAdjust="spacing" textLength="33" x="13" y="97.7634">BLUE</text><text fill="#000000" font-family="sans-serif" font-size="14" lengthAdjust="spacing" textLength="27" x="13" y="114.2517">RED</text><text fill="#000000" font-family="sans-serif" font-size="14" lengthAdjust="spacing" textLength="54" x="13" y="130.74">YELLOW</text><text fill="#000000" font-family="sans-serif" font-size="14" lengthAdjust="spacing" textLength="50" x="13" y="147.2283">PURPLE</text><text fill="#000000" font-family="sans-serif" font-size="14" lengthAdjust="spacing" textLength="50" x="13" y="163.7166">BROWN</text></g><!--class Value--><g id="elem_Value"><rect codeLine="38" fill="#FEECCD" height="188.3945" id="Value" rx="5" ry="5" style="stroke:#7A003C;stroke-width:1.0;" width="70" x="403" y="7"/><ellipse cx="418" cy="23" fill="#EB937F" rx="11" ry="11" style="stroke:#181818;stroke-width:1.0;"/><path d="M421.6143,29.5 L413.8945,29.5 L413.8945,17.1069 L421.6143,17.1069 L421.6143,19.2651 L416.3433,19.2651 L416.3433,21.938 L421.1162,21.938 L421.1162,24.0962 L416.3433,24.0962 L416.3433,27.3418 L421.6143,27.3418 Z " fill="#000000"/><text fill="#000000" font-family="sans-serif" font-size="14" lengthAdjust="spacing" textLength="38" x="432" y="28.291">Value</text><line style="stroke:#7A003C;stroke-width:1.0;" x1="404" x2="472" y1="39" y2="39"/><text fill="#000000" font-family="sans-serif" font-size="14" lengthAdjust="spacing" textLength="32" x="409" y="56.5352">NINE</text><text fill="#000000" font-family="sans-serif" font-size="14" lengthAdjust="spacing" textLength="41" x="409" y="73.0234">EIGHT</text><text fill="#000000" font-family="sans-serif" font-size="14" lengthAdjust="spacing" textLength="43" x="409" y="89.5117">SEVEN</text><text fill="#000000" font-family="sans-serif" font-size="14" lengthAdjust="spacing" textLength="21" x="409" y="106">SIX</text><text fill="#000000" font-family="sans-serif" font-size="14" lengthAdjust="spacing" textLength="29" x="409" y="122.4883">FIVE</text><text fill="#000000" font-family="sans-serif" font-size="14" lengthAdjust="spacing" textLength="38" x="409" y="138.9766">FOUR</text><text fill="#000000" font-family="sans-serif" font-size="14" lengthAdjust="spacing" textLength="44" x="409" y="155.4648">THREE</text><text fill="#000000" font-family="sans-serif" font-size="14" lengthAdjust="spacing" textLength="32" x="409" y="171.9531">TWO</text><text fill="#000000" font-family="sans-serif" font-size="14" lengthAdjust="spacing" textLength="29" x="409" y="188.4414">ONE</text></g><!--reverse link Card to Joker--><g id="link_Card_Joker"><path d="M240,176.61 C240,201.79 240,213.7 240,240.15 " fill="none" id="Card-backto-Joker" style="stroke:#7A003C;stroke-width:1.0;"/><polygon fill="none" points="240,158.61,234,176.61,246,176.61,240,158.61" style="stroke:#7A003C;stroke-width:1.0;"/></g><!--link Joker to GMN5--><g id="link_Joker_GMN5"><path d="M315.9,309.62 C320.11,309.62 322.67,309.62 322.67,309.62 C322.67,309.62 366.31,309.62 390.17,309.62 " fill="none" id="Joker-GMN5" style="stroke:#7A003C;stroke-width:1.0;stroke-dasharray:7.0,7.0;"/></g><!--link Color to Card--><g id="link_Color_Card"><path codeLine="26" d="M83.32,101.2 C99.01,101.2 108,101.2 108,101.2 C108,101.2 120.82,101.2 140.02,101.2 " fill="none" id="Color-Card" style="stroke:#7A003C;stroke-width:1.0;"/><polygon fill="#7A003C" points="77.32,101.2,86.32,105.2,82.32,101.2,86.32,97.2,77.32,101.2" style="stroke:#7A003C;stroke-width:1.0;"/><polygon fill="#7A003C" points="152.02,101.2,146.02,97.2,140.02,101.2,146.02,105.2,152.02,101.2" style="stroke:#7A003C;stroke-width:1.0;"/><text fill="#000000" font-family="sans-serif" font-size="13" lengthAdjust="spacing" textLength="44" x="85.0224" y="97.7808"># color</text></g><!--link Card to Value--><g id="link_Card_Value"><path codeLine="27" d="M339.98,101.2 C359.18,101.2 372,101.2 372,101.2 C372,101.2 380.99,101.2 396.68,101.2 " fill="none" id="Card-Value" style="stroke:#7A003C;stroke-width:1.0;"/><polygon fill="#7A003C" points="327.98,101.2,333.98,105.2,339.98,101.2,333.98,97.2,327.98,101.2" style="stroke:#7A003C;stroke-width:1.0;"/><polygon fill="#7A003C" points="402.68,101.2,393.68,97.2,397.68,101.2,393.68,105.2,402.68,101.2" style="stroke:#7A003C;stroke-width:1.0;"/><text fill="#000000" font-family="sans-serif" font-size="13" lengthAdjust="spacing" textLength="45" x="349.9104" y="97.7818"># value</text></g><!--SRC=[RL5RQy8m57xFhpZJ5o-hUne36NlGHUqeLghL3SQWj0TRZ4b9KdKCzzjdatRgM5_oXUzsJdgJyPWL2KBlBY-shAVq9qD2r2RZUIIZBN2HeC8S7ku98J6Bb89X91Fu8c2-BkWqKwsu3qF1XBo5NH-M4IkmNGcQLb1V7UVNk4PjFArsPRvaJ4R9642ETVcBsA04F6ZaoTKetSkUggKB7_-NME9FnvLHrRvwi_QPiBxpeaV2XKQGsJhLVGYvAl9SI8s9dwECT2OuFSIOb-2TwrIAFOTzYhpSimDnn1WcX9WMQ7mt8IvHuz7fcFs8MRBZF1bkLrOsxC04UR6rqzN_OnnGEhLmu8NKee0-M_16FSzVMJmBWvbN2GQ1lvgMRsm2JNWLE7MdLaFTyMHXq9mkgugv-shEaRkqef4V1WOi9gSvB5hvvlHFEKVo0m00]--></g></svg>