<?xml version="1.0" encoding="us-ascii" standalone="no"?><svg xmlns="http://www.w3.org/2000/svg" xmlns:xlink="http://www.w3.org/1999/xlink" contentStyleType="text/css" height="284px" preserveAspectRatio="none" style="width:480px;height:284px;background:#FFFFFF;" version="1.1" viewBox="0 0 480 284" width="480px" zoomAndPan="magnify"><defs/><g><!--class Card--><g id="elem_Card"><rect codeLine="6" fill="#FEECCD" height="203.9063" id="Card" rx="5" ry="5" style="stroke:#7A003C;stroke-width:1.0;" width="175" x="152.5" y="7"/><ellipse cx="219.25" cy="23" fill="#ADD1B2" rx="11" ry="11" style="stroke:#181818;stroke-width:1.0;"/><path d="M221.7231,29.1431 Q221.1421,29.4419 220.5029,29.5913 Q219.8638,29.7407 219.1582,29.7407 Q216.6514,29.7407 215.3315,28.0889 Q214.0117,26.437 214.0117,23.3159 Q214.0117,20.1865 215.3315,18.5347 Q216.6514,16.8828 219.1582,16.8828 Q219.8638,16.8828 220.5112,17.0322 Q221.1587,17.1816 221.7231,17.4805 L221.7231,20.2031 Q221.0923,19.6221 220.4988,19.3523 Q219.9053,19.0825 219.2744,19.0825 Q217.9297,19.0825 217.2449,20.1492 Q216.5601,21.2158 216.5601,23.3159 Q216.5601,25.4077 217.2449,26.4744 Q217.9297,27.541 219.2744,27.541 Q219.9053,27.541 220.4988,27.2712 Q221.0923,27.0015 221.7231,26.4204 Z " fill="#000000"/><text fill="#000000" font-family="sans-serif" font-size="14" lengthAdjust="spacing" textLength="33" x="239.75" y="28.291">Card</text><line style="stroke:#7A003C;stroke-width:1.0;" x1="153.5" x2="326.5" y1="39" y2="39"/><rect fill="none" height="6" style="stroke:#C82930;stroke-width:1.0;" width="6" x="160.5" y="49.7441"/><text fill="#000000" font-family="sans-serif" font-size="14" lengthAdjust="spacing" textLength="115" x="172.5" y="56.5352">isJoker?: Boolean</text><line style="stroke:#7A003C;stroke-width:1.0;" x1="153.5" x2="326.5" y1="63.4883" y2="63.4883"/><ellipse cx="163.5" cy="77.2324" fill="#84BE84" rx="3" ry="3" style="stroke:#038048;stroke-width:1.0;"/><text fill="#000000" font-family="sans-serif" font-size="14" lengthAdjust="spacing" textLength="149" x="172.5" y="81.0234">this(c: Color, v: Value)</text><ellipse cx="163.5" cy="93.7207" fill="#84BE84" rx="3" ry="3" style="stroke:#038048;stroke-width:1.0;"/><text fill="#000000" font-family="sans-serif" font-size="14" lengthAdjust="spacing" textLength="35" x="172.5" y="97.5117">this()</text><line style="stroke:#7A003C;stroke-width:1.0;" x1="153.5" x2="326.5" y1="104.4648" y2="104.4648"/><ellipse cx="163.5" cy="118.209" fill="#84BE84" rx="3" ry="3" style="stroke:#038048;stroke-width:1.0;"/><text fill="#000000" font-family="sans-serif" font-size="14" lengthAdjust="spacing" textLength="116" x="172.5" y="122">getColor(): Color</text><ellipse cx="163.5" cy="134.6973" fill="#84BE84" rx="3" ry="3" style="stroke:#038048;stroke-width:1.0;"/><text fill="#000000" font-family="sans-serif" font-size="14" lengthAdjust="spacing" textLength="121" x="172.5" y="138.4883">setColor(c: Color)</text><line style="stroke:#7A003C;stroke-width:1.0;" x1="153.5" x2="326.5" y1="145.4414" y2="145.4414"/><ellipse cx="163.5" cy="159.1855" fill="#84BE84" rx="3" ry="3" style="stroke:#038048;stroke-width:1.0;"/><text fill="#000000" font-family="sans-serif" font-size="14" lengthAdjust="spacing" textLength="116" x="172.5" y="162.9766">getValue(): Value</text><ellipse cx="163.5" cy="175.6738" fill="#84BE84" rx="3" ry="3" style="stroke:#038048;stroke-width:1.0;"/><text fill="#000000" font-family="sans-serif" font-size="14" lengthAdjust="spacing" textLength="121" x="172.5" y="179.4648">setValue(v: Value)</text><line style="stroke:#7A003C;stroke-width:1.0;" x1="153.5" x2="326.5" y1="186.418" y2="186.418"/><ellipse cx="163.5" cy="200.1621" fill="#84BE84" rx="3" ry="3" style="stroke:#038048;stroke-width:1.0;"/><text fill="#000000" font-family="sans-serif" font-size="14" lengthAdjust="spacing" textLength="125" x="172.5" y="203.9531">isJoker?(): Boolean</text></g><g id="elem_GMN3"><path d="M142.5,260.91 L142.5,272.5506 A5,5 0 0 0 147.5,277.5506 L332.5,277.5506 A5,5 0 0 0 337.5,272.5506 L337.5,265.91 L327.5,255.91 L244,255.91 L240,211.25 L236,255.91 L147.5,255.91 A5,5 0 0 0 142.5,260.91 " fill="#FEFFDD" style="stroke:#181818;stroke-width:0.5;"/><path d="M327.5,255.91 L327.5,263.41 A2.5,2.5 0 0 0 330,265.91 L337.5,265.91 L327.5,255.91 " fill="#FEFFDD" style="stroke:#181818;stroke-width:0.5;"/><text fill="#000000" font-family="Courier" font-size="10" lengthAdjust="spacing" textLength="174" x="148.5" y="270.1922">Joker&#160;initialized&#160;as&#160;ONE-BLUE</text></g><!--class Color--><g id="elem_Color"><rect codeLine="25" fill="#FEECCD" height="138.9297" id="Color" rx="5" ry="5" style="stroke:#7A003C;stroke-width:1.0;" width="70" x="7" y="39.49"/><ellipse cx="22" cy="55.49" fill="#EB937F" rx="11" ry="11" style="stroke:#181818;stroke-width:1.0;"/><path d="M25.6143,61.99 L17.8945,61.99 L17.8945,49.5969 L25.6143,49.5969 L25.6143,51.7551 L20.3433,51.7551 L20.3433,54.428 L25.1162,54.428 L25.1162,56.5862 L20.3433,56.5862 L20.3433,59.8318 L25.6143,59.8318 Z " fill="#000000"/><text fill="#000000" font-family="sans-serif" font-size="14" lengthAdjust="spacing" textLength="38" x="36" y="60.781">Color</text><line style="stroke:#7A003C;stroke-width:1.0;" x1="8" x2="76" y1="71.49" y2="71.49"/><text fill="#000000" font-family="sans-serif" font-size="14" lengthAdjust="spacing" textLength="45" x="13" y="89.0252">GREEN</text><text fill="#000000" font-family="sans-serif" font-size="14" lengthAdjust="spacing" textLength="33" x="13" y="105.5134">BLUE</text><text fill="#000000" font-family="sans-serif" font-size="14" lengthAdjust="spacing" textLength="27" x="13" y="122.0017">RED</text><text fill="#000000" font-family="sans-serif" font-size="14" lengthAdjust="spacing" textLength="54" x="13" y="138.49">YELLOW</text><text fill="#000000" font-family="sans-serif" font-size="14" lengthAdjust="spacing" textLength="50" x="13" y="154.9783">PURPLE</text><text fill="#000000" font-family="sans-serif" font-size="14" lengthAdjust="spacing" textLength="50" x="13" y="171.4666">BROWN</text></g><!--class Value--><g id="elem_Value"><rect codeLine="34" fill="#FEECCD" height="188.3945" id="Value" rx="5" ry="5" style="stroke:#7A003C;stroke-width:1.0;" width="70" x="403" y="14.76"/><ellipse cx="418" cy="30.76" fill="#EB937F" rx="11" ry="11" style="stroke:#181818;stroke-width:1.0;"/><path d="M421.6143,37.26 L413.8945,37.26 L413.8945,24.8669 L421.6143,24.8669 L421.6143,27.0251 L416.3433,27.0251 L416.3433,29.698 L421.1162,29.698 L421.1162,31.8562 L416.3433,31.8562 L416.3433,35.1018 L421.6143,35.1018 Z " fill="#000000"/><text fill="#000000" font-family="sans-serif" font-size="14" lengthAdjust="spacing" textLength="38" x="432" y="36.051">Value</text><line style="stroke:#7A003C;stroke-width:1.0;" x1="404" x2="472" y1="46.76" y2="46.76"/><text fill="#000000" font-family="sans-serif" font-size="14" lengthAdjust="spacing" textLength="32" x="409" y="64.2952">NINE</text><text fill="#000000" font-family="sans-serif" font-size="14" lengthAdjust="spacing" textLength="41" x="409" y="80.7834">EIGHT</text><text fill="#000000" font-family="sans-serif" font-size="14" lengthAdjust="spacing" textLength="43" x="409" y="97.2717">SEVEN</text><text fill="#000000" font-family="sans-serif" font-size="14" lengthAdjust="spacing" textLength="21" x="409" y="113.76">SIX</text><text fill="#000000" font-family="sans-serif" font-size="14" lengthAdjust="spacing" textLength="29" x="409" y="130.2483">FIVE</text><text fill="#000000" font-family="sans-serif" font-size="14" lengthAdjust="spacing" textLength="38" x="409" y="146.7366">FOUR</text><text fill="#000000" font-family="sans-serif" font-size="14" lengthAdjust="spacing" textLength="44" x="409" y="163.2248">THREE</text><text fill="#000000" font-family="sans-serif" font-size="14" lengthAdjust="spacing" textLength="32" x="409" y="179.7131">TWO</text><text fill="#000000" font-family="sans-serif" font-size="14" lengthAdjust="spacing" textLength="29" x="409" y="196.2014">ONE</text></g><!--link Color to Card--><g id="link_Color_Card"><path codeLine="22" d="M83.32,108.96 C99.01,108.96 108,108.96 108,108.96 C108,108.96 120.82,108.96 140.02,108.96 " fill="none" id="Color-Card" style="stroke:#7A003C;stroke-width:1.0;"/><polygon fill="#7A003C" points="77.32,108.96,86.32,112.96,82.32,108.96,86.32,104.96,77.32,108.96" style="stroke:#7A003C;stroke-width:1.0;"/><polygon fill="#7A003C" points="152.02,108.96,146.02,104.96,140.02,108.96,146.02,112.96,152.02,108.96" style="stroke:#7A003C;stroke-width:1.0;"/><text fill="#000000" font-family="sans-serif" font-size="13" lengthAdjust="spacing" textLength="44" x="85.0224" y="105.5421">- color</text></g><!--link Card to Value--><g id="link_Card_Value"><path codeLine="23" d="M339.98,108.96 C359.18,108.96 372,108.96 372,108.96 C372,108.96 380.99,108.96 396.68,108.96 " fill="none" id="Card-Value" style="stroke:#7A003C;stroke-width:1.0;"/><polygon fill="#7A003C" points="327.98,108.96,333.98,112.96,339.98,108.96,333.98,104.96,327.98,108.96" style="stroke:#7A003C;stroke-width:1.0;"/><polygon fill="#7A003C" points="402.68,108.96,393.68,104.96,397.68,108.96,393.68,112.96,402.68,108.96" style="stroke:#7A003C;stroke-width:1.0;"/><text fill="#000000" font-family="sans-serif" font-size="13" lengthAdjust="spacing" textLength="45" x="349.9104" y="105.5418">- value</text></g><!--SRC=[RL1TIyCm57tFhxZsQPjsFebGH64psogb7TtMwMDiWuQbIMdIWOh_tVQcbVcHbnmu7_VSUoPKBfk2m_IoQaevDVPDSaBCGQYArQm4fGjkU0NNLuJaaXa3SrONy440dm_2FEW3h-y2c6ajELC3u_VW7EohCACyWBcMkhw0Om0PamqV_nIC_nfVk4NFQDoRlnapC4Fi_swSqxaHdBeTyxlAYNlOgtCFctqIfIs7PssjBWD00GWbh61IlFC2c84afluisb52i1TuFkGTyE36d-3n25vmujzstB4Rx_Nz25TDwVOPBhnCAOqTn5H4ARrtu8b6KR9tUBrBrr4lcAN9Fcxhka0CxmFZC7OQ6YvNMqGRclKZDk4Z_eimSw95iaiHR5Tj3uVs2Vxjdks0Bm00]--></g></svg>