<?xml version="1.0" encoding="us-ascii" standalone="no"?><svg xmlns="http://www.w3.org/2000/svg" xmlns:xlink="http://www.w3.org/1999/xlink" contentStyleType="text/css" height="293px" preserveAspectRatio="none" style="width:480px;height:293px;background:#FFFFFF;" version="1.1" viewBox="0 0 480 293" width="480px" zoomAndPan="magnify"><defs/><g><!--class Card--><g id="elem_Card"><rect codeLine="6" fill="#FEECCD" height="179.418" id="Card" rx="5" ry="5" style="stroke:#7A003C;stroke-width:1.0;" width="175" x="152.5" y="23.73"/><ellipse cx="219.25" cy="39.73" fill="#ADD1B2" rx="11" ry="11" style="stroke:#181818;stroke-width:1.0;"/><path d="M221.7231,45.8731 Q221.1421,46.1719 220.5029,46.3213 Q219.8638,46.4707 219.1582,46.4707 Q216.6514,46.4707 215.3315,44.8189 Q214.0117,43.167 214.0117,40.0459 Q214.0117,36.9165 215.3315,35.2647 Q216.6514,33.6128 219.1582,33.6128 Q219.8638,33.6128 220.5112,33.7622 Q221.1587,33.9116 221.7231,34.2105 L221.7231,36.9331 Q221.0923,36.3521 220.4988,36.0823 Q219.9053,35.8125 219.2744,35.8125 Q217.9297,35.8125 217.2449,36.8792 Q216.5601,37.9458 216.5601,40.0459 Q216.5601,42.1377 217.2449,43.2044 Q217.9297,44.271 219.2744,44.271 Q219.9053,44.271 220.4988,44.0012 Q221.0923,43.7315 221.7231,43.1504 Z " fill="#000000"/><text fill="#000000" font-family="sans-serif" font-size="14" lengthAdjust="spacing" textLength="33" x="239.75" y="45.021">Card</text><line style="stroke:#7A003C;stroke-width:1.0;" x1="153.5" x2="326.5" y1="55.73" y2="55.73"/><ellipse cx="163.5" cy="69.4741" fill="#84BE84" rx="3" ry="3" style="stroke:#038048;stroke-width:1.0;"/><text fill="#000000" font-family="sans-serif" font-size="14" lengthAdjust="spacing" textLength="149" x="172.5" y="73.2652">this(c: Color, v: Value)</text><ellipse cx="163.5" cy="85.9624" fill="#84BE84" rx="3" ry="3" style="stroke:#038048;stroke-width:1.0;"/><text fill="#000000" font-family="sans-serif" font-size="14" lengthAdjust="spacing" textLength="35" x="172.5" y="89.7534">this()</text><line style="stroke:#7A003C;stroke-width:1.0;" x1="153.5" x2="326.5" y1="96.7066" y2="96.7066"/><ellipse cx="163.5" cy="110.4507" fill="#84BE84" rx="3" ry="3" style="stroke:#038048;stroke-width:1.0;"/><text fill="#000000" font-family="sans-serif" font-size="14" lengthAdjust="spacing" textLength="116" x="172.5" y="114.2417">getColor(): Color</text><ellipse cx="163.5" cy="126.939" fill="#84BE84" rx="3" ry="3" style="stroke:#038048;stroke-width:1.0;"/><text fill="#000000" font-family="sans-serif" font-size="14" lengthAdjust="spacing" textLength="121" x="172.5" y="130.73">setColor(c: Color)</text><line style="stroke:#7A003C;stroke-width:1.0;" x1="153.5" x2="326.5" y1="137.6831" y2="137.6831"/><ellipse cx="163.5" cy="151.4273" fill="#84BE84" rx="3" ry="3" style="stroke:#038048;stroke-width:1.0;"/><text fill="#000000" font-family="sans-serif" font-size="14" lengthAdjust="spacing" textLength="116" x="172.5" y="155.2183">getValue(): Value</text><ellipse cx="163.5" cy="167.9155" fill="#84BE84" rx="3" ry="3" style="stroke:#038048;stroke-width:1.0;"/><text fill="#000000" font-family="sans-serif" font-size="14" lengthAdjust="spacing" textLength="121" x="172.5" y="171.7066">setValue(v: Value)</text><line style="stroke:#7A003C;stroke-width:1.0;" x1="153.5" x2="326.5" y1="178.6597" y2="178.6597"/><ellipse cx="163.5" cy="192.4038" fill="#84BE84" rx="3" ry="3" style="stroke:#038048;stroke-width:1.0;"/><text fill="#000000" font-family="sans-serif" font-size="14" lengthAdjust="spacing" textLength="125" x="172.5" y="196.1948">isJoker?(): Boolean</text></g><g id="elem_GMN3"><path d="M139.5,269.88 L139.5,281.5206 A5,5 0 0 0 144.5,286.5206 L335.5,286.5206 A5,5 0 0 0 340.5,281.5206 L340.5,274.88 L330.5,264.88 L244,264.88 L240,203.47 L236,264.88 L144.5,264.88 A5,5 0 0 0 139.5,269.88 " fill="#FEFFDD" style="stroke:#181818;stroke-width:0.5;"/><path d="M330.5,264.88 L330.5,272.38 A2.5,2.5 0 0 0 333,274.88 L340.5,274.88 L330.5,264.88 " fill="#FEFFDD" style="stroke:#181818;stroke-width:0.5;"/><text fill="#000000" font-family="Courier" font-size="10" lengthAdjust="spacing" textLength="180" x="145.5" y="279.1622">Joker&#160;initialized&#160;as&#160;NONE-NONE</text></g><!--class Color--><g id="elem_Color"><rect codeLine="23" fill="#FEECCD" height="163.418" id="Color" rx="5" ry="5" style="stroke:#7A003C;stroke-width:1.0;" width="70" x="7" y="31.73"/><ellipse cx="22" cy="47.73" fill="#EB937F" rx="11" ry="11" style="stroke:#181818;stroke-width:1.0;"/><path d="M25.6143,54.23 L17.8945,54.23 L17.8945,41.8369 L25.6143,41.8369 L25.6143,43.9951 L20.3433,43.9951 L20.3433,46.668 L25.1162,46.668 L25.1162,48.8262 L20.3433,48.8262 L20.3433,52.0718 L25.6143,52.0718 Z " fill="#000000"/><text fill="#000000" font-family="sans-serif" font-size="14" lengthAdjust="spacing" textLength="38" x="36" y="53.021">Color</text><line style="stroke:#7A003C;stroke-width:1.0;" x1="8" x2="76" y1="63.73" y2="63.73"/><text fill="#000000" font-family="sans-serif" font-size="14" lengthAdjust="spacing" textLength="45" x="13" y="81.2652">GREEN</text><text fill="#000000" font-family="sans-serif" font-size="14" lengthAdjust="spacing" textLength="33" x="13" y="97.7534">BLUE</text><text fill="#000000" font-family="sans-serif" font-size="14" lengthAdjust="spacing" textLength="27" x="13" y="114.2417">RED</text><text fill="#000000" font-family="sans-serif" font-size="14" lengthAdjust="spacing" textLength="54" x="13" y="130.73">YELLOW</text><text fill="#000000" font-family="sans-serif" font-size="14" lengthAdjust="spacing" textLength="50" x="13" y="147.2183">PURPLE</text><text fill="#000000" font-family="sans-serif" font-size="14" lengthAdjust="spacing" textLength="50" x="13" y="163.7066">BROWN</text><line style="stroke:#7A003C;stroke-width:1.0;" x1="8" x2="76" y1="170.6597" y2="170.6597"/><text fill="#000000" font-family="sans-serif" font-size="14" lengthAdjust="spacing" textLength="39" x="13" y="188.1948">NONE</text></g><!--class Value--><g id="elem_Value"><rect codeLine="34" fill="#FEECCD" height="212.8828" id="Value" rx="5" ry="5" style="stroke:#7A003C;stroke-width:1.0;" width="70" x="403" y="7"/><ellipse cx="418" cy="23" fill="#EB937F" rx="11" ry="11" style="stroke:#181818;stroke-width:1.0;"/><path d="M421.6143,29.5 L413.8945,29.5 L413.8945,17.1069 L421.6143,17.1069 L421.6143,19.2651 L416.3433,19.2651 L416.3433,21.938 L421.1162,21.938 L421.1162,24.0962 L416.3433,24.0962 L416.3433,27.3418 L421.6143,27.3418 Z " fill="#000000"/><text fill="#000000" font-family="sans-serif" font-size="14" lengthAdjust="spacing" textLength="38" x="432" y="28.291">Value</text><line style="stroke:#7A003C;stroke-width:1.0;" x1="404" x2="472" y1="39" y2="39"/><text fill="#000000" font-family="sans-serif" font-size="14" lengthAdjust="spacing" textLength="32" x="409" y="56.5352">NINE</text><text fill="#000000" font-family="sans-serif" font-size="14" lengthAdjust="spacing" textLength="41" x="409" y="73.0234">EIGHT</text><text fill="#000000" font-family="sans-serif" font-size="14" lengthAdjust="spacing" textLength="43" x="409" y="89.5117">SEVEN</text><text fill="#000000" font-family="sans-serif" font-size="14" lengthAdjust="spacing" textLength="21" x="409" y="106">SIX</text><text fill="#000000" font-family="sans-serif" font-size="14" lengthAdjust="spacing" textLength="29" x="409" y="122.4883">FIVE</text><text fill="#000000" font-family="sans-serif" font-size="14" lengthAdjust="spacing" textLength="38" x="409" y="138.9766">FOUR</text><text fill="#000000" font-family="sans-serif" font-size="14" lengthAdjust="spacing" textLength="44" x="409" y="155.4648">THREE</text><text fill="#000000" font-family="sans-serif" font-size="14" lengthAdjust="spacing" textLength="32" x="409" y="171.9531">TWO</text><text fill="#000000" font-family="sans-serif" font-size="14" lengthAdjust="spacing" textLength="29" x="409" y="188.4414">ONE</text><line style="stroke:#7A003C;stroke-width:1.0;" x1="404" x2="472" y1="195.3945" y2="195.3945"/><text fill="#000000" font-family="sans-serif" font-size="14" lengthAdjust="spacing" textLength="39" x="409" y="212.9297">NONE</text></g><!--link Color to Card--><g id="link_Color_Card"><path codeLine="20" d="M83.32,113.44 C99.01,113.44 108,113.44 108,113.44 C108,113.44 120.82,113.44 140.02,113.44 " fill="none" id="Color-Card" style="stroke:#7A003C;stroke-width:1.0;"/><polygon fill="#7A003C" points="77.32,113.44,86.32,117.44,82.32,113.44,86.32,109.44,77.32,113.44" style="stroke:#7A003C;stroke-width:1.0;"/><polygon fill="#7A003C" points="152.02,113.44,146.02,109.44,140.02,113.44,146.02,117.44,152.02,113.44" style="stroke:#7A003C;stroke-width:1.0;"/><text fill="#000000" font-family="sans-serif" font-size="13" lengthAdjust="spacing" textLength="44" x="85.0224" y="110.0215">- color</text></g><!--link Card to Value--><g id="link_Card_Value"><path codeLine="21" d="M339.98,113.44 C359.18,113.44 372,113.44 372,113.44 C372,113.44 380.99,113.44 396.68,113.44 " fill="none" id="Card-Value" style="stroke:#7A003C;stroke-width:1.0;"/><polygon fill="#7A003C" points="327.98,113.44,333.98,117.44,339.98,113.44,333.98,109.44,327.98,113.44" style="stroke:#7A003C;stroke-width:1.0;"/><polygon fill="#7A003C" points="402.68,113.44,393.68,109.44,397.68,113.44,393.68,117.44,402.68,113.44" style="stroke:#7A003C;stroke-width:1.0;"/><text fill="#000000" font-family="sans-serif" font-size="13" lengthAdjust="spacing" textLength="45" x="349.9104" y="110.0212">- value</text></g><!--SRC=[RP1HJy8m58NV-okkUm9q-6HCYD44B32pR6GmqCUwDThGjSlQaQZXl-jkEuB6FgndlVVhERqNGXMoBJcCh-ksacDZFoGdnEo5gbd3Ab2wv8RNS7j3I26PCJ1ZJGbV171TWdqNPb1COAQbRgxWC84jaoqV_cxeVyFmTFx6BJA3eOTF5TDN-cl_fz6der6SqwxoDyePBSoJtlFceQEdMalE53aIfIs7LssjhYQ03I2Ki899ySbBO0QIDA5Xzo44Wq4GGj690Ex24Ow6u7n6uNrNEtJ-WGz8k6ehzw1-VekCqiJ9QPnJfpBwwCGBZUDqv_GgprQnRvXcwSvJ_Pimqz5Re9stIAB4KJHQB3UerdJhJTVHC-xpQEkQvccUeTWiVv8vjKjnJ_qztj4RVWC0]--></g></svg>