<?xml version="1.0" encoding="us-ascii" standalone="no"?><svg xmlns="http://www.w3.org/2000/svg" xmlns:xlink="http://www.w3.org/1999/xlink" contentStyleType="text/css" height="202px" preserveAspectRatio="none" style="width:482px;height:202px;background:#FFFFFF;" version="1.1" viewBox="0 0 482 202" width="482px" zoomAndPan="magnify"><defs/><g><!--class Card--><g id="elem_Card"><rect codeLine="6" fill="#FEECCD" height="154.9297" id="Card" rx="5" ry="5" style="stroke:#7A003C;stroke-width:1.0;" width="178" x="152" y="23.73"/><ellipse cx="220.25" cy="39.73" fill="#ADD1B2" rx="11" ry="11" style="stroke:#181818;stroke-width:1.0;"/><path d="M222.7231,45.8731 Q222.1421,46.1719 221.5029,46.3213 Q220.8638,46.4707 220.1582,46.4707 Q217.6514,46.4707 216.3315,44.8189 Q215.0117,43.167 215.0117,40.0459 Q215.0117,36.9165 216.3315,35.2647 Q217.6514,33.6128 220.1582,33.6128 Q220.8638,33.6128 221.5112,33.7622 Q222.1587,33.9116 222.7231,34.2105 L222.7231,36.9331 Q222.0923,36.3521 221.4988,36.0823 Q220.9053,35.8125 220.2744,35.8125 Q218.9297,35.8125 218.2449,36.8792 Q217.5601,37.9458 217.5601,40.0459 Q217.5601,42.1377 218.2449,43.2044 Q218.9297,44.271 220.2744,44.271 Q220.9053,44.271 221.4988,44.0012 Q222.0923,43.7315 222.7231,43.1504 Z " fill="#000000"/><text fill="#000000" font-family="sans-serif" font-size="14" lengthAdjust="spacing" textLength="33" x="240.75" y="45.021">Card</text><line style="stroke:#7A003C;stroke-width:1.0;" x1="153" x2="329" y1="55.73" y2="55.73"/><ellipse cx="163" cy="69.4741" fill="#84BE84" rx="3" ry="3" style="stroke:#038048;stroke-width:1.0;"/><text fill="#000000" font-family="sans-serif" font-size="14" lengthAdjust="spacing" textLength="149" x="172" y="73.2652">this(c: Color, v: Value)</text><ellipse cx="163" cy="85.9624" fill="#84BE84" rx="3" ry="3" style="stroke:#038048;stroke-width:1.0;"/><text fill="#000000" font-family="sans-serif" font-size="14" lengthAdjust="spacing" textLength="35" x="172" y="89.7534">this()</text><line style="stroke:#7A003C;stroke-width:1.0;" x1="153" x2="329" y1="96.7066" y2="96.7066"/><ellipse cx="163" cy="110.4507" fill="#84BE84" rx="3" ry="3" style="stroke:#038048;stroke-width:1.0;"/><text fill="#000000" font-family="sans-serif" font-size="14" lengthAdjust="spacing" textLength="152" x="172" y="114.2417">getColor(): Color[0..1]</text><ellipse cx="163" cy="126.939" fill="#84BE84" rx="3" ry="3" style="stroke:#038048;stroke-width:1.0;"/><text fill="#000000" font-family="sans-serif" font-size="14" lengthAdjust="spacing" textLength="121" x="172" y="130.73">setColor(c: Color)</text><line style="stroke:#7A003C;stroke-width:1.0;" x1="153" x2="329" y1="137.6831" y2="137.6831"/><ellipse cx="163" cy="151.4273" fill="#84BE84" rx="3" ry="3" style="stroke:#038048;stroke-width:1.0;"/><text fill="#000000" font-family="sans-serif" font-size="14" lengthAdjust="spacing" textLength="152" x="172" y="155.2183">getValue(): Value[0..1]</text><ellipse cx="163" cy="167.9155" fill="#84BE84" rx="3" ry="3" style="stroke:#038048;stroke-width:1.0;"/><text fill="#000000" font-family="sans-serif" font-size="14" lengthAdjust="spacing" textLength="121" x="172" y="171.7066">setValue(v: Value)</text></g><!--class Color--><g id="elem_Color"><rect codeLine="20" fill="#FEECCD" height="138.9297" id="Color" rx="5" ry="5" style="stroke:#7A003C;stroke-width:1.0;" width="70" x="7" y="31.73"/><ellipse cx="22" cy="47.73" fill="#EB937F" rx="11" ry="11" style="stroke:#181818;stroke-width:1.0;"/><path d="M25.6143,54.23 L17.8945,54.23 L17.8945,41.8369 L25.6143,41.8369 L25.6143,43.9951 L20.3433,43.9951 L20.3433,46.668 L25.1162,46.668 L25.1162,48.8262 L20.3433,48.8262 L20.3433,52.0718 L25.6143,52.0718 Z " fill="#000000"/><text fill="#000000" font-family="sans-serif" font-size="14" lengthAdjust="spacing" textLength="38" x="36" y="53.021">Color</text><line style="stroke:#7A003C;stroke-width:1.0;" x1="8" x2="76" y1="63.73" y2="63.73"/><text fill="#000000" font-family="sans-serif" font-size="14" lengthAdjust="spacing" textLength="45" x="13" y="81.2652">GREEN</text><text fill="#000000" font-family="sans-serif" font-size="14" lengthAdjust="spacing" textLength="33" x="13" y="97.7534">BLUE</text><text fill="#000000" font-family="sans-serif" font-size="14" lengthAdjust="spacing" textLength="27" x="13" y="114.2417">RED</text><text fill="#000000" font-family="sans-serif" font-size="14" lengthAdjust="spacing" textLength="54" x="13" y="130.73">YELLOW</text><text fill="#000000" font-family="sans-serif" font-size="14" lengthAdjust="spacing" textLength="50" x="13" y="147.2183">PURPLE</text><text fill="#000000" font-family="sans-serif" font-size="14" lengthAdjust="spacing" textLength="50" x="13" y="163.7066">BROWN</text></g><!--class Value--><g id="elem_Value"><rect codeLine="29" fill="#FEECCD" height="188.3945" id="Value" rx="5" ry="5" style="stroke:#7A003C;stroke-width:1.0;" width="70" x="405" y="7"/><ellipse cx="420" cy="23" fill="#EB937F" rx="11" ry="11" style="stroke:#181818;stroke-width:1.0;"/><path d="M423.6143,29.5 L415.8945,29.5 L415.8945,17.1069 L423.6143,17.1069 L423.6143,19.2651 L418.3433,19.2651 L418.3433,21.938 L423.1162,21.938 L423.1162,24.0962 L418.3433,24.0962 L418.3433,27.3418 L423.6143,27.3418 Z " fill="#000000"/><text fill="#000000" font-family="sans-serif" font-size="14" lengthAdjust="spacing" textLength="38" x="434" y="28.291">Value</text><line style="stroke:#7A003C;stroke-width:1.0;" x1="406" x2="474" y1="39" y2="39"/><text fill="#000000" font-family="sans-serif" font-size="14" lengthAdjust="spacing" textLength="32" x="411" y="56.5352">NINE</text><text fill="#000000" font-family="sans-serif" font-size="14" lengthAdjust="spacing" textLength="41" x="411" y="73.0234">EIGHT</text><text fill="#000000" font-family="sans-serif" font-size="14" lengthAdjust="spacing" textLength="43" x="411" y="89.5117">SEVEN</text><text fill="#000000" font-family="sans-serif" font-size="14" lengthAdjust="spacing" textLength="21" x="411" y="106">SIX</text><text fill="#000000" font-family="sans-serif" font-size="14" lengthAdjust="spacing" textLength="29" x="411" y="122.4883">FIVE</text><text fill="#000000" font-family="sans-serif" font-size="14" lengthAdjust="spacing" textLength="38" x="411" y="138.9766">FOUR</text><text fill="#000000" font-family="sans-serif" font-size="14" lengthAdjust="spacing" textLength="44" x="411" y="155.4648">THREE</text><text fill="#000000" font-family="sans-serif" font-size="14" lengthAdjust="spacing" textLength="32" x="411" y="171.9531">TWO</text><text fill="#000000" font-family="sans-serif" font-size="14" lengthAdjust="spacing" textLength="29" x="411" y="188.4414">ONE</text></g><!--link Color to Card--><g id="link_Color_Card"><path codeLine="17" d="M83.5,101.19 C99.27,101.19 108.33,101.19 108.33,101.19 C108.33,101.19 120.65,101.19 139.84,101.19 " fill="none" id="Color-Card" style="stroke:#7A003C;stroke-width:1.0;"/><polygon fill="#7A003C" points="77.5,101.19,86.5,105.19,82.5,101.19,86.5,97.19,77.5,101.19" style="stroke:#7A003C;stroke-width:1.0;"/><polygon fill="#7A003C" points="151.84,101.19,145.84,97.19,139.84,101.19,145.84,105.19,151.84,101.19" style="stroke:#7A003C;stroke-width:1.0;"/><text fill="#000000" font-family="sans-serif" font-size="13" lengthAdjust="spacing" textLength="44" x="84.8672" y="97.8167">- color</text></g><!--link Card to Value--><g id="link_Card_Value"><path codeLine="18" d="M342.16,101.19 C361.35,101.19 373.67,101.19 373.67,101.19 C373.67,101.19 382.73,101.19 398.5,101.19 " fill="none" id="Card-Value" style="stroke:#7A003C;stroke-width:1.0;"/><polygon fill="#7A003C" points="330.16,101.19,336.16,105.19,342.16,101.19,336.16,97.19,330.16,101.19" style="stroke:#7A003C;stroke-width:1.0;"/><polygon fill="#7A003C" points="404.5,101.19,395.5,97.19,399.5,101.19,395.5,105.19,404.5,101.19" style="stroke:#7A003C;stroke-width:1.0;"/><text fill="#000000" font-family="sans-serif" font-size="13" lengthAdjust="spacing" textLength="45" x="352.0688" y="97.8164">- value</text></g><!--SRC=[ROzDJuD048Rlyoj6JcrrKG-cIMCyj6vR4i8sj836U22mKUBo4HQQ6DF_Rfc56jDosMUPTvwTkSgAHBMfHFksQdDbw-PRIG3zbHLLNCSv5cKgjQnm-W2Gg5XhNCHrYZ-0z5rZyvdfKJB3HQdA-WRtCmnZrShn_y1mPUpq_qCsr3CQzyrlTxPz_twgww4-o2yxwBNEGN3kCFM_iGu0P4EBOTA1XOziGbi1hJPXJrrjtyKjqmKWYpOtKmohhtpEFODpD-26VFviu9MxheWCRm9_u_Q1kIyYhvk1X2JlXPxZcGntLkiTqPQ7_HDRvuNEfHEQq584Fi5kVPp3K2Je54VF0Nu1]--></g></svg>