<?xml version="1.0" encoding="us-ascii" standalone="no"?><svg xmlns="http://www.w3.org/2000/svg" xmlns:xlink="http://www.w3.org/1999/xlink" contentStyleType="text/css" height="202px" preserveAspectRatio="none" style="width:480px;height:202px;background:#FFFFFF;" version="1.1" viewBox="0 0 480 202" width="480px" zoomAndPan="magnify"><defs/><g><!--class Card--><g id="elem_Card"><rect codeLine="6" fill="#FEECCD" height="97.4648" id="Card" rx="5" ry="5" style="stroke:#7A003C;stroke-width:1.0;" width="175" x="152.5" y="52.46"/><ellipse cx="219.25" cy="68.46" fill="#ADD1B2" rx="11" ry="11" style="stroke:#181818;stroke-width:1.0;"/><path d="M221.7231,74.6031 Q221.1421,74.9019 220.5029,75.0513 Q219.8638,75.2007 219.1582,75.2007 Q216.6514,75.2007 215.3315,73.5489 Q214.0117,71.897 214.0117,68.7759 Q214.0117,65.6465 215.3315,63.9947 Q216.6514,62.3428 219.1582,62.3428 Q219.8638,62.3428 220.5112,62.4922 Q221.1587,62.6416 221.7231,62.9405 L221.7231,65.6631 Q221.0923,65.0821 220.4988,64.8123 Q219.9053,64.5425 219.2744,64.5425 Q217.9297,64.5425 217.2449,65.6092 Q216.5601,66.6758 216.5601,68.7759 Q216.5601,70.8677 217.2449,71.9344 Q217.9297,73.001 219.2744,73.001 Q219.9053,73.001 220.4988,72.7312 Q221.0923,72.4615 221.7231,71.8804 Z " fill="#000000"/><text fill="#000000" font-family="sans-serif" font-size="14" lengthAdjust="spacing" textLength="33" x="239.75" y="73.751">Card</text><line style="stroke:#7A003C;stroke-width:1.0;" x1="153.5" x2="326.5" y1="84.46" y2="84.46"/><ellipse cx="163.5" cy="98.2041" fill="#84BE84" rx="3" ry="3" style="stroke:#038048;stroke-width:1.0;"/><text fill="#000000" font-family="sans-serif" font-size="14" lengthAdjust="spacing" textLength="149" x="172.5" y="101.9952">this(c: Color, v: Value)</text><line style="stroke:#7A003C;stroke-width:1.0;" x1="153.5" x2="326.5" y1="108.9483" y2="108.9483"/><ellipse cx="163.5" cy="122.6924" fill="#84BE84" rx="3" ry="3" style="stroke:#038048;stroke-width:1.0;"/><text fill="#000000" font-family="sans-serif" font-size="14" lengthAdjust="spacing" textLength="116" x="172.5" y="126.4834">getColor(): Color</text><ellipse cx="163.5" cy="139.1807" fill="#84BE84" rx="3" ry="3" style="stroke:#038048;stroke-width:1.0;"/><text fill="#000000" font-family="sans-serif" font-size="14" lengthAdjust="spacing" textLength="116" x="172.5" y="142.9717">getValue(): Value</text></g><!--class Color--><g id="elem_Color"><rect codeLine="16" fill="#FEECCD" height="138.9297" id="Color" rx="5" ry="5" style="stroke:#7A003C;stroke-width:1.0;" width="70" x="7" y="31.73"/><ellipse cx="22" cy="47.73" fill="#EB937F" rx="11" ry="11" style="stroke:#181818;stroke-width:1.0;"/><path d="M25.6143,54.23 L17.8945,54.23 L17.8945,41.8369 L25.6143,41.8369 L25.6143,43.9951 L20.3433,43.9951 L20.3433,46.668 L25.1162,46.668 L25.1162,48.8262 L20.3433,48.8262 L20.3433,52.0718 L25.6143,52.0718 Z " fill="#000000"/><text fill="#000000" font-family="sans-serif" font-size="14" lengthAdjust="spacing" textLength="38" x="36" y="53.021">Color</text><line style="stroke:#7A003C;stroke-width:1.0;" x1="8" x2="76" y1="63.73" y2="63.73"/><text fill="#000000" font-family="sans-serif" font-size="14" lengthAdjust="spacing" textLength="45" x="13" y="81.2652">GREEN</text><text fill="#000000" font-family="sans-serif" font-size="14" lengthAdjust="spacing" textLength="33" x="13" y="97.7534">BLUE</text><text fill="#000000" font-family="sans-serif" font-size="14" lengthAdjust="spacing" textLength="27" x="13" y="114.2417">RED</text><text fill="#000000" font-family="sans-serif" font-size="14" lengthAdjust="spacing" textLength="54" x="13" y="130.73">YELLOW</text><text fill="#000000" font-family="sans-serif" font-size="14" lengthAdjust="spacing" textLength="50" x="13" y="147.2183">PURPLE</text><text fill="#000000" font-family="sans-serif" font-size="14" lengthAdjust="spacing" textLength="50" x="13" y="163.7066">BROWN</text></g><!--class Value--><g id="elem_Value"><rect codeLine="25" fill="#FEECCD" height="188.3945" id="Value" rx="5" ry="5" style="stroke:#7A003C;stroke-width:1.0;" width="70" x="403" y="7"/><ellipse cx="418" cy="23" fill="#EB937F" rx="11" ry="11" style="stroke:#181818;stroke-width:1.0;"/><path d="M421.6143,29.5 L413.8945,29.5 L413.8945,17.1069 L421.6143,17.1069 L421.6143,19.2651 L416.3433,19.2651 L416.3433,21.938 L421.1162,21.938 L421.1162,24.0962 L416.3433,24.0962 L416.3433,27.3418 L421.6143,27.3418 Z " fill="#000000"/><text fill="#000000" font-family="sans-serif" font-size="14" lengthAdjust="spacing" textLength="38" x="432" y="28.291">Value</text><line style="stroke:#7A003C;stroke-width:1.0;" x1="404" x2="472" y1="39" y2="39"/><text fill="#000000" font-family="sans-serif" font-size="14" lengthAdjust="spacing" textLength="32" x="409" y="56.5352">NINE</text><text fill="#000000" font-family="sans-serif" font-size="14" lengthAdjust="spacing" textLength="41" x="409" y="73.0234">EIGHT</text><text fill="#000000" font-family="sans-serif" font-size="14" lengthAdjust="spacing" textLength="43" x="409" y="89.5117">SEVEN</text><text fill="#000000" font-family="sans-serif" font-size="14" lengthAdjust="spacing" textLength="21" x="409" y="106">SIX</text><text fill="#000000" font-family="sans-serif" font-size="14" lengthAdjust="spacing" textLength="29" x="409" y="122.4883">FIVE</text><text fill="#000000" font-family="sans-serif" font-size="14" lengthAdjust="spacing" textLength="38" x="409" y="138.9766">FOUR</text><text fill="#000000" font-family="sans-serif" font-size="14" lengthAdjust="spacing" textLength="44" x="409" y="155.4648">THREE</text><text fill="#000000" font-family="sans-serif" font-size="14" lengthAdjust="spacing" textLength="32" x="409" y="171.9531">TWO</text><text fill="#000000" font-family="sans-serif" font-size="14" lengthAdjust="spacing" textLength="29" x="409" y="188.4414">ONE</text></g><!--link Color to Card--><g id="link_Color_Card"><path codeLine="13" d="M83.32,101.19 C99.01,101.19 108,101.19 108,101.19 C108,101.19 120.82,101.19 140.02,101.19 " fill="none" id="Color-Card" style="stroke:#7A003C;stroke-width:1.0;"/><polygon fill="#7A003C" points="77.32,101.19,86.32,105.19,82.32,101.19,86.32,97.19,77.32,101.19" style="stroke:#7A003C;stroke-width:1.0;"/><polygon fill="#7A003C" points="152.02,101.19,146.02,97.19,140.02,101.19,146.02,105.19,152.02,101.19" style="stroke:#7A003C;stroke-width:1.0;"/><text fill="#000000" font-family="sans-serif" font-size="13" lengthAdjust="spacing" textLength="44" x="85.0224" y="97.7708">- color</text></g><!--link Card to Value--><g id="link_Card_Value"><path codeLine="14" d="M339.98,101.19 C359.18,101.19 372,101.19 372,101.19 C372,101.19 380.99,101.19 396.68,101.19 " fill="none" id="Card-Value" style="stroke:#7A003C;stroke-width:1.0;"/><polygon fill="#7A003C" points="327.98,101.19,333.98,105.19,339.98,101.19,333.98,97.19,327.98,101.19" style="stroke:#7A003C;stroke-width:1.0;"/><polygon fill="#7A003C" points="402.68,101.19,393.68,97.19,397.68,101.19,393.68,105.19,402.68,101.19" style="stroke:#7A003C;stroke-width:1.0;"/><text fill="#000000" font-family="sans-serif" font-size="13" lengthAdjust="spacing" textLength="45" x="349.9104" y="97.7704">- value</text></g><!--SRC=[JOvTIyCm58RlpwyuzcgRPbw9CCIBpMmhb6PaQwkNeGrQJ3zese78_hlBIHHpSnuuJzxptjHjQQPAu_A-dngpjEENqG3sisvxDQW6swxILlVu-01G6cKjRjHGuJSWlLiSFsexArUuwKmttE5vXRaoavu7WR4_yrsF9CtcmVw_eKzkGm0N058mObWwYF29BUWsK845UtQxixCZ_mTqEpK- -RVVJdAUUbmd6VSa-Ok7Dvuael1yoEGX2S9QYY9r5IYGmaDW6gVUuV5kVo8wyZoSECQlDBTnxgMjo2J1QN_juQaGDCKrvm8_]--></g></svg>